<svg version="1.1" id="Layer_1" xmlns="http://www.w3.org/2000/svg" xmlns:xlink="http://www.w3.org/1999/xlink" x="0px" y="0px"
	 width="100%" viewBox="0 0 825 825" enable-background="new 0 0 825 825" xml:space="preserve">
<path fill="#38BC00" opacity="1.000000" stroke="none" 
	d="
M406.000000,826.000000 
	C270.666687,826.000000 135.833359,826.000000 1.000036,826.000000 
	C1.000024,551.000061 1.000024,276.000092 1.000012,1.000110 
	C275.999908,1.000073 550.999817,1.000073 825.999817,1.000037 
	C825.999878,275.999878 825.999878,550.999756 825.999939,825.999817 
	C686.166687,826.000000 546.333313,826.000000 406.000000,826.000000 
M381.763519,359.453735 
	C382.248199,357.561829 383.042053,355.689392 383.162659,353.774567 
	C383.621124,346.493835 384.359711,339.180603 384.085388,331.913818 
	C383.419586,314.276428 377.196442,298.562347 365.185059,285.643768 
	C355.763885,275.511047 344.896027,267.635620 330.579041,264.838043 
	C318.548553,262.487244 307.672760,264.271881 298.251221,271.353912 
	C288.664948,278.559784 285.254791,289.746857 285.104858,301.167145 
	C284.654175,335.487854 284.943420,369.818237 284.939117,404.144867 
	C284.938934,405.643494 285.016235,407.157227 284.838226,408.637573 
	C284.466736,411.726990 282.833221,413.032196 279.698242,411.939850 
	C272.143616,409.307465 264.764832,406.385315 259.095581,400.375702 
	C243.596878,383.946503 238.075928,363.588684 237.302917,341.881226 
	C236.913498,330.945648 238.356659,319.847717 239.984680,308.974976 
	C240.913177,302.773956 243.008438,296.377472 246.120346,290.953766 
	C251.860306,280.949707 259.871002,273.166321 271.971954,270.820831 
	C273.130463,270.596313 274.382141,268.046600 274.508057,266.488831 
	C274.570648,265.714539 272.237518,264.137543 270.878906,263.999634 
	C268.822479,263.790833 266.680298,264.610901 264.557892,264.838531 
	C247.129578,266.707458 233.287979,274.883575 222.643036,288.656708 
	C214.608215,299.052643 209.261795,310.843445 207.047913,323.658875 
	C204.849289,336.385986 205.225769,349.172943 208.698792,361.928192 
	C212.815552,377.047668 219.974655,390.488403 230.926514,401.286804 
	C243.745544,413.926300 260.043304,420.249542 277.967926,422.039551 
	C284.058929,422.647858 284.939972,423.412628 284.941284,429.637543 
	C284.944672,445.634399 284.942444,461.631287 284.942444,477.628143 
	C284.942444,490.201111 284.945099,490.017395 297.618835,490.200714 
	C302.074463,490.265167 303.309509,488.815582 303.259705,484.474335 
	C303.051453,466.313599 303.170380,448.149109 303.172821,429.985992 
	C303.173737,423.170013 303.957886,423.124695 310.820099,421.914551 
	C320.335663,420.236450 330.236053,418.779938 338.956085,414.928955 
	C362.635742,404.471252 375.356964,384.693787 381.763519,359.453735 
M381.217865,564.302551 
	C393.932617,574.408936 408.681335,579.417480 424.616150,580.884705 
	C428.800995,581.269958 429.017517,583.029175 428.988647,586.227539 
	C428.883392,597.886475 428.879120,609.547485 428.968231,621.206604 
	C429.041992,630.857300 426.237671,632.543213 440.233551,632.250732 
	C446.243408,632.125183 447.045807,631.321472 447.050049,625.234802 
	C447.059235,612.075806 447.095917,598.916565 447.018646,585.757996 
	C447.002167,582.951355 447.201752,581.054077 450.858154,580.886230 
	C454.605927,580.714172 458.366791,579.867615 462.029114,578.947021 
	C487.797729,572.469910 505.527679,557.342102 513.213684,531.338806 
	C516.974731,518.614502 517.832886,505.831543 516.182556,492.619568 
	C514.343445,477.895935 509.763763,464.357025 499.654724,453.528107 
	C487.902802,440.939270 472.652130,434.655334 455.616058,433.014648 
	C447.239288,432.207855 447.052948,432.375427 447.052887,424.160370 
	C447.052765,406.837128 447.074341,389.513855 447.017029,372.190796 
	C447.011719,370.591644 447.077148,368.334717 446.129547,367.511505 
	C442.286377,364.172852 437.705872,364.552582 432.995117,365.626404 
	C428.670715,366.612183 428.922363,369.680084 428.929230,372.928345 
	C428.966797,390.751221 428.896667,408.574432 428.992249,426.396851 
	C429.010071,429.720459 428.907776,432.141632 424.493378,432.213989 
	C421.088593,432.269836 417.667419,433.210907 414.310547,434.000793 
	C392.193451,439.204926 375.231842,451.080994 366.111847,472.433563 
	C359.623627,487.624298 357.580933,503.434418 359.811523,519.998108 
	C362.101837,537.005371 368.072479,551.927734 381.217865,564.302551 
M510.362610,293.235657 
	C506.195923,293.236816 502.029022,293.210571 497.862640,293.247040 
	C493.903076,293.281677 491.716705,295.348358 491.213135,299.243439 
	C490.396210,305.562561 491.237946,310.736053 500.309113,310.149048 
	C505.228424,309.830719 512.323792,308.553467 514.605042,311.117950 
	C517.247314,314.088287 515.896912,320.802246 515.906494,325.891693 
	C515.972778,360.890839 515.908813,395.890259 516.014221,430.889221 
	C516.021301,433.237549 516.304993,436.714355 517.782349,437.716187 
	C522.126282,440.661804 527.625610,440.867218 532.006104,438.294708 
	C534.149109,437.036194 535.591248,432.844910 535.609070,429.970184 
	C535.842529,392.305756 535.764343,354.639404 535.764343,316.973511 
	C535.764343,315.045380 535.764343,313.117279 535.764343,310.058502 
	C546.464600,310.058502 556.410461,309.916046 566.348389,310.132751 
	C570.021484,310.212860 571.860901,308.634766 572.966919,305.431030 
	C575.437317,298.274872 571.869690,293.256134 564.191956,293.240265 
	C554.911255,293.221069 545.630493,293.235718 535.665222,293.235718 
	C536.460327,279.268585 533.846008,265.769409 538.709595,252.680817 
	C541.235291,245.883881 546.549866,242.005554 553.804138,241.748032 
	C561.179138,241.486221 568.397705,241.867813 575.175964,245.291473 
	C578.012634,246.724258 580.492126,246.000229 581.735229,242.943726 
	C584.367126,236.472763 581.218567,228.855896 574.408569,227.386139 
	C567.237671,225.838486 559.725769,224.845215 552.423706,225.136185 
	C535.261597,225.820084 523.388306,236.257446 518.935181,252.777832 
	C515.767639,264.528900 515.911255,276.485138 516.023987,288.445435 
	C516.058228,292.077087 515.174805,293.866058 510.362610,293.235657 
z"/>
<path fill="#FDFEFD" opacity="1.000000" stroke="none" 
	d="
M381.757690,359.881836 
	C375.356964,384.693787 362.635742,404.471252 338.956085,414.928955 
	C330.236053,418.779938 320.335663,420.236450 310.820099,421.914551 
	C303.957886,423.124695 303.173737,423.170013 303.172821,429.985992 
	C303.170380,448.149109 303.051453,466.313599 303.259705,484.474335 
	C303.309509,488.815582 302.074463,490.265167 297.618835,490.200714 
	C284.945099,490.017395 284.942444,490.201111 284.942444,477.628143 
	C284.942444,461.631287 284.944672,445.634399 284.941284,429.637543 
	C284.939972,423.412628 284.058929,422.647858 277.967926,422.039551 
	C260.043304,420.249542 243.745544,413.926300 230.926514,401.286804 
	C219.974655,390.488403 212.815552,377.047668 208.698792,361.928192 
	C205.225769,349.172943 204.849289,336.385986 207.047913,323.658875 
	C209.261795,310.843445 214.608215,299.052643 222.643036,288.656708 
	C233.287979,274.883575 247.129578,266.707458 264.557892,264.838531 
	C266.680298,264.610901 268.822479,263.790833 270.878906,263.999634 
	C272.237518,264.137543 274.570648,265.714539 274.508057,266.488831 
	C274.382141,268.046600 273.130463,270.596313 271.971954,270.820831 
	C259.871002,273.166321 251.860306,280.949707 246.120346,290.953766 
	C243.008438,296.377472 240.913177,302.773956 239.984680,308.974976 
	C238.356659,319.847717 236.913498,330.945648 237.302917,341.881226 
	C238.075928,363.588684 243.596878,383.946503 259.095581,400.375702 
	C264.764832,406.385315 272.143616,409.307465 279.698242,411.939850 
	C282.833221,413.032196 284.466736,411.726990 284.838226,408.637573 
	C285.016235,407.157227 284.938934,405.643494 284.939117,404.144867 
	C284.943420,369.818237 284.654175,335.487854 285.104858,301.167145 
	C285.254791,289.746857 288.664948,278.559784 298.251221,271.353912 
	C307.672760,264.271881 318.548553,262.487244 330.579041,264.838043 
	C344.896027,267.635620 355.763885,275.511047 365.185059,285.643768 
	C377.196442,298.562347 383.419586,314.276428 384.085388,331.913818 
	C384.359711,339.180603 383.621124,346.493835 383.162659,353.774567 
	C383.042053,355.689392 382.248199,357.561829 381.757690,359.881836 
M321.409790,409.205933 
	C322.559082,408.568726 323.656616,407.803802 324.865570,407.313782 
	C338.870361,401.637390 347.193298,390.877808 352.339783,377.099670 
	C356.539215,365.856873 357.099121,354.219086 356.942261,342.410156 
	C356.701111,324.256409 351.502472,307.993286 339.568970,294.034271 
	C334.189941,287.742310 327.324219,284.342010 319.329590,283.947754 
	C314.530701,283.711121 309.281769,285.220306 307.257538,290.253235 
	C305.258545,295.223511 303.399292,300.671143 303.338806,305.930756 
	C302.980682,337.066803 303.163940,368.209076 303.165192,399.349274 
	C303.165344,402.513245 303.166718,405.677246 303.166992,408.841217 
	C303.167267,411.996918 304.243835,413.526825 307.774323,412.478699 
	C312.001007,411.223877 316.330688,410.316040 321.409790,409.205933 
z"/>
<path fill="#FDFEFC" opacity="1.000000" stroke="none" 
	d="
M380.920898,564.104065 
	C368.072479,551.927734 362.101837,537.005371 359.811523,519.998108 
	C357.580933,503.434418 359.623627,487.624298 366.111847,472.433563 
	C375.231842,451.080994 392.193451,439.204926 414.310547,434.000793 
	C417.667419,433.210907 421.088593,432.269836 424.493378,432.213989 
	C428.907776,432.141632 429.010071,429.720459 428.992249,426.396851 
	C428.896667,408.574432 428.966797,390.751221 428.929230,372.928345 
	C428.922363,369.680084 428.670715,366.612183 432.995117,365.626404 
	C437.705872,364.552582 442.286377,364.172852 446.129547,367.511505 
	C447.077148,368.334717 447.011719,370.591644 447.017029,372.190796 
	C447.074341,389.513855 447.052765,406.837128 447.052887,424.160370 
	C447.052948,432.375427 447.239288,432.207855 455.616058,433.014648 
	C472.652130,434.655334 487.902802,440.939270 499.654724,453.528107 
	C509.763763,464.357025 514.343445,477.895935 516.182556,492.619568 
	C517.832886,505.831543 516.974731,518.614502 513.213684,531.338806 
	C505.527679,557.342102 487.797729,572.469910 462.029114,578.947021 
	C458.366791,579.867615 454.605927,580.714172 450.858154,580.886230 
	C447.201752,581.054077 447.002167,582.951355 447.018646,585.757996 
	C447.095917,598.916565 447.059235,612.075806 447.050049,625.234802 
	C447.045807,631.321472 446.243408,632.125183 440.233551,632.250732 
	C426.237671,632.543213 429.041992,630.857300 428.968231,621.206604 
	C428.879120,609.547485 428.883392,597.886475 428.988647,586.227539 
	C429.017517,583.029175 428.800995,581.269958 424.616150,580.884705 
	C408.681335,579.417480 393.932617,574.408936 380.920898,564.104065 
M389.887238,547.599243 
	C391.324799,549.164368 392.643738,550.862061 394.219879,552.272339 
	C402.162567,559.378845 411.815887,562.236328 422.087799,564.224792 
	C427.956329,565.360901 429.038513,565.477173 429.010101,558.415771 
	C428.874054,524.603943 428.949066,490.791260 428.949066,456.978882 
	C428.949066,448.019958 428.925873,447.851837 420.026245,449.078400 
	C401.322693,451.656250 388.181793,461.392792 381.930847,479.556488 
	C376.959229,494.002777 376.936493,508.884735 379.378052,523.680969 
	C380.768494,532.107422 383.155365,540.524048 389.887238,547.599243 
M474.349854,558.028198 
	C481.717682,553.504517 487.627502,547.585999 491.321655,539.705017 
	C499.704803,521.820801 499.601349,503.219269 495.350922,484.451508 
	C492.993286,474.041321 488.003540,465.068268 479.196472,458.465759 
	C470.686676,452.086090 460.770355,449.829163 450.635345,448.094971 
	C447.667725,447.587158 447.017639,449.356842 447.020935,451.976135 
	C447.066345,488.272491 447.088959,524.569031 446.991302,560.865173 
	C446.981964,564.332642 448.500244,565.662048 451.464935,564.869751 
	C458.918854,562.877747 466.281647,560.544861 474.349854,558.028198 
z"/>
<path fill="#FBFEFA" opacity="1.000000" stroke="none" 
	d="
M510.844055,293.235535 
	C515.174805,293.866058 516.058228,292.077087 516.023987,288.445435 
	C515.911255,276.485138 515.767639,264.528900 518.935181,252.777832 
	C523.388306,236.257446 535.261597,225.820084 552.423706,225.136185 
	C559.725769,224.845215 567.237671,225.838486 574.408569,227.386139 
	C581.218567,228.855896 584.367126,236.472763 581.735229,242.943726 
	C580.492126,246.000229 578.012634,246.724258 575.175964,245.291473 
	C568.397705,241.867813 561.179138,241.486221 553.804138,241.748032 
	C546.549866,242.005554 541.235291,245.883881 538.709595,252.680817 
	C533.846008,265.769409 536.460327,279.268585 535.665222,293.235718 
	C545.630493,293.235718 554.911255,293.221069 564.191956,293.240265 
	C571.869690,293.256134 575.437317,298.274872 572.966919,305.431030 
	C571.860901,308.634766 570.021484,310.212860 566.348389,310.132751 
	C556.410461,309.916046 546.464600,310.058502 535.764343,310.058502 
	C535.764343,313.117279 535.764343,315.045380 535.764343,316.973511 
	C535.764343,354.639404 535.842529,392.305756 535.609070,429.970184 
	C535.591248,432.844910 534.149109,437.036194 532.006104,438.294708 
	C527.625610,440.867218 522.126282,440.661804 517.782349,437.716187 
	C516.304993,436.714355 516.021301,433.237549 516.014221,430.889221 
	C515.908813,395.890259 515.972778,360.890839 515.906494,325.891693 
	C515.896912,320.802246 517.247314,314.088287 514.605042,311.117950 
	C512.323792,308.553467 505.228424,309.830719 500.309113,310.149048 
	C491.237946,310.736053 490.396210,305.562561 491.213135,299.243439 
	C491.716705,295.348358 493.903076,293.281677 497.862640,293.247040 
	C502.029022,293.210571 506.195923,293.236816 510.844055,293.235535 
z"/>
<path fill="#3ABD03" opacity="1.000000" stroke="none" 
	d="
M321.012787,409.231934 
	C316.330688,410.316040 312.001007,411.223877 307.774323,412.478699 
	C304.243835,413.526825 303.167267,411.996918 303.166992,408.841217 
	C303.166718,405.677246 303.165344,402.513245 303.165192,399.349274 
	C303.163940,368.209076 302.980682,337.066803 303.338806,305.930756 
	C303.399292,300.671143 305.258545,295.223511 307.257538,290.253235 
	C309.281769,285.220306 314.530701,283.711121 319.329590,283.947754 
	C327.324219,284.342010 334.189941,287.742310 339.568970,294.034271 
	C351.502472,307.993286 356.701111,324.256409 356.942261,342.410156 
	C357.099121,354.219086 356.539215,365.856873 352.339783,377.099670 
	C347.193298,390.877808 338.870361,401.637390 324.865570,407.313782 
	C323.656616,407.803802 322.559082,408.568726 321.012787,409.231934 
z"/>
<path fill="#39BC01" opacity="1.000000" stroke="none" 
	d="
M389.647644,547.331421 
	C383.155365,540.524048 380.768494,532.107422 379.378052,523.680969 
	C376.936493,508.884735 376.959229,494.002777 381.930847,479.556488 
	C388.181793,461.392792 401.322693,451.656250 420.026245,449.078400 
	C428.925873,447.851837 428.949066,448.019958 428.949066,456.978882 
	C428.949066,490.791260 428.874054,524.603943 429.010101,558.415771 
	C429.038513,565.477173 427.956329,565.360901 422.087799,564.224792 
	C411.815887,562.236328 402.162567,559.378845 394.219879,552.272339 
	C392.643738,550.862061 391.324799,549.164368 389.647644,547.331421 
z"/>
<path fill="#39BC01" opacity="1.000000" stroke="none" 
	d="
M474.015411,558.188477 
	C466.281647,560.544861 458.918854,562.877747 451.464935,564.869751 
	C448.500244,565.662048 446.981964,564.332642 446.991302,560.865173 
	C447.088959,524.569031 447.066345,488.272491 447.020935,451.976135 
	C447.017639,449.356842 447.667725,447.587158 450.635345,448.094971 
	C460.770355,449.829163 470.686676,452.086090 479.196472,458.465759 
	C488.003540,465.068268 492.993286,474.041321 495.350922,484.451508 
	C499.601349,503.219269 499.704803,521.820801 491.321655,539.705017 
	C487.627502,547.585999 481.717682,553.504517 474.015411,558.188477 
z"/>
</svg>